<?xml version="1.0" encoding="UTF-8" standalone="no"?>
<!-- Created with Inkscape (http://www.inkscape.org/) -->
<svg xmlns:svg="http://www.w3.org/2000/svg" xmlns="http://www.w3.org/2000/svg" version="1.0" width="600" height="160" id="svg2268">
  <defs id="defs2270"/>
  <g transform="translate(-162.857, -252.252)" id="layer1">
    <g transform="matrix(2107.27, 0, 0, 2111.35, 195.143, -1206.64)" id="g2249">
      <path d="M 148.625,506.09375 L 148.15625,506.125 L 147.6875,506.125 L 147.25,506.15625 L 146.34375,506.21875 L 145.46875,506.3125 L 144.625,506.4375 L 143.78125,506.5625 L 143,506.6875 L 142.21875,506.875 L 141.46875,507 L 140.71875,507.1875 L 140.03125,507.34375 L 139.34375,507.5 L 138.6875,507.65625 L 138.03125,507.8125 L 137.4375,507.96875 L 136.8125,508.0625 L 135.875,515.875 C 137.42498,515.13748 142.31253,513.78125 146.375,513.65625 C 150.42498,513.53127 152.82499,514.40002 152,517.875 C 139.95007,517.87497 131.81874,520.33755 130.15625,528.125 C 127.76877,541.49993 142.43129,541.13746 148.28125,535.3125 L 147.5625,538.53125 L 158.3125,538.53125 L 162.96875,517.25 C 164.88123,508.21253 156.64995,505.96875 149.125,506.09375 L 148.625,506.09375 z M 147.8125,525.03125 C 148.63749,525.03125 149.61251,525.03125 150.4375,525.03125 C 150.20001,526.01874 150.06875,526.88751 149.84375,527.875 L 149.78125,528.125 L 149.6875,528.40625 L 149.625,528.625 L 149.53125,528.875 L 149.4375,529.09375 L 149.3125,529.3125 L 149.21875,529.53125 L 149.09375,529.71875 L 148.96875,529.90625 L 148.8125,530.09375 L 148.6875,530.25 L 148.53125,530.4375 L 148.375,530.59375 L 148.1875,530.75 L 148,530.875 L 147.84375,531 L 147.65625,531.125 L 147.4375,531.25 L 147.25,531.34375 L 147.0625,531.4375 L 146.84375,531.5625 L 146.625,531.625 L 146.40625,531.71875 L 146.1875,531.78125 L 145.9375,531.84375 L 145.71875,531.90625 L 145.46875,531.9375 L 145.25,532 L 145,532.03125 L 144.75,532.0625 L 144.5,532.0625 L 144.21875,532.09375 C 141.83126,532.21878 139.68751,530.09998 141.25,527.625 C 142.4375,525.51252 145.77501,525.03125 147.8125,525.03125 z " transform="scale(0.00138889, 0.00138889)" style="font-style: normal; font-variant: normal; font-weight: normal; font-stretch: normal; letter-spacing: normal; word-spacing: normal; text-anchor: start; fill: rgb(41, 151, 216); fill-opacity: 1; fill-rule: evenodd; stroke: rgb(41, 151, 216); stroke-width: 0pt; stroke-linecap: butt; stroke-linejoin: miter; stroke-miterlimit: 10.433; stroke-dasharray: none; stroke-dashoffset: 0pt; stroke-opacity: 1;" id="path42"/>
      <polygon points="155.71,285.86 148.61,253.18 157.34,253.18 164.53,285.86 155.71,285.86" transform="matrix(0.0017361, 0, 0, -0.0017361, -0.03125, 1.1875)" style="font-style: normal; font-variant: normal; font-weight: normal; font-stretch: normal; letter-spacing: normal; word-spacing: normal; text-anchor: start; fill: rgb(41, 151, 216); fill-opacity: 1; fill-rule: evenodd; stroke: rgb(41, 151, 216); stroke-width: 0pt; stroke-linecap: butt; stroke-linejoin: miter; stroke-miterlimit: 10.433; stroke-dasharray: none; stroke-dashoffset: 0pt; stroke-opacity: 1;" id="polygon44"/>
      <path d="M 102.0625,497.8125 L 93.21875,538.53125 L 104.8125,538.53125 L 107.8125,525.03125 L 116.0625,525.03125 C 124.19995,525.03125 130.88751,520.0812 132.6875,511.65625 C 134.72498,502.1313 127.76871,497.8125 122.03125,497.8125 L 102.0625,497.8125 z M 111.875,506.09375 L 117.625,506.09375 C 120.61248,506.09375 122.4,508.56877 121.6875,511.65625 L 121.59375,511.9375 L 121.5,512.25 L 121.40625,512.5 L 121.3125,512.78125 L 121.1875,513.0625 L 121.03125,513.3125 L 120.875,513.59375 L 120.71875,513.84375 L 120.5625,514.09375 L 120.375,514.3125 L 120.1875,514.5625 L 120,514.78125 L 119.78125,515 L 119.5625,515.21875 L 119.34375,515.40625 L 119.125,515.625 L 118.875,515.8125 L 118.625,515.96875 L 118.375,516.125 L 118.125,516.28125 L 117.875,516.4375 L 117.625,516.5625 L 117.34375,516.6875 L 117.09375,516.8125 L 116.8125,516.90625 L 116.53125,517 L 116.25,517.0625 L 115.96875,517.125 L 115.6875,517.1875 L 115.4375,517.21875 L 115.125,517.21875 L 114.875,517.25 L 109.46875,517.25 L 111.875,506.09375 z " transform="scale(0.00138889, 0.00138889)" style="font-style: normal; font-variant: normal; font-weight: normal; font-stretch: normal; letter-spacing: normal; word-spacing: normal; text-anchor: start; fill: rgb(41, 151, 216); fill-opacity: 1; fill-rule: evenodd; stroke: rgb(41, 151, 216); stroke-width: 0pt; stroke-linecap: butt; stroke-linejoin: miter; stroke-miterlimit: 10.433; stroke-dasharray: none; stroke-dashoffset: 0pt; stroke-opacity: 1;" id="path48"/>
      <path d="M 44.0625,506.09375 L 43.59375,506.125 L 43.15625,506.125 L 42.6875,506.15625 L 41.8125,506.21875 L 40.9375,506.3125 L 40.09375,506.4375 L 39.28125,506.5625 L 38.5,506.6875 L 37.75,506.875 L 37,507 L 36.28125,507.1875 L 35.59375,507.34375 L 34.9375,507.5 L 34.28125,507.65625 L 33.6875,507.8125 L 33.09375,507.96875 L 32.53125,508.0625 L 31.59375,515.875 C 33.004992,515.13748 37.840026,513.78125 41.84375,513.65625 C 45.852475,513.53127 48.208745,514.40002 47.5,517.875 C 35.596327,517.87497 27.588739,520.33755 25.9375,528.125 C 23.580015,541.49993 38.063786,541.13746 43.71875,535.3125 L 43,538.53125 L 53.75,538.53125 L 58.34375,517.25 C 60.233738,508.21253 51.952453,505.96875 44.53125,506.09375 L 44.0625,506.09375 z M 43.25,525.03125 C 44.192495,525.03125 45.026256,525.03125 45.96875,525.03125 C 45.733752,526.01874 45.497499,526.88751 45.375,527.875 L 45.3125,528.125 L 45.25,528.40625 L 45.15625,528.625 L 45.0625,528.875 L 44.96875,529.09375 L 44.84375,529.3125 L 44.75,529.53125 L 44.625,529.71875 L 44.46875,529.90625 L 44.34375,530.09375 L 44.1875,530.25 L 44.03125,530.4375 L 43.875,530.59375 L 43.6875,530.75 L 43.53125,530.875 L 43.34375,531 L 43.15625,531.125 L 42.9375,531.25 L 42.75,531.34375 L 42.53125,531.4375 L 42.3125,531.5625 L 42.09375,531.625 L 41.875,531.71875 L 41.65625,531.78125 L 41.4375,531.84375 L 41.1875,531.90625 L 40.9375,531.9375 L 40.71875,532 L 40.46875,532.03125 L 40.21875,532.0625 L 39.96875,532.0625 L 39.71875,532.09375 C 37.360016,532.21878 35.34126,530.09998 36.875,527.625 C 38.051242,525.51252 41.365012,525.03125 43.25,525.03125 z " transform="scale(0.00138889, 0.00138889)" style="font-style: normal; font-variant: normal; font-weight: normal; font-stretch: normal; letter-spacing: normal; word-spacing: normal; text-anchor: start; fill: rgb(17, 85, 157); fill-opacity: 1; fill-rule: evenodd; stroke: rgb(17, 85, 157); stroke-width: 0pt; stroke-linecap: butt; stroke-linejoin: miter; stroke-miterlimit: 10.433; stroke-dasharray: none; stroke-dashoffset: 0pt; stroke-opacity: 1;" id="path52"/>
      <polygon points="68.406,278.65 76.984,278.65 78.367,263.48 86.762,278.65 95.613,278.65 75.23,242.35 65.637,242.35 71.91,253.02 68.406,278.65" transform="matrix(0.0017361, 0, 0, -0.0017361, -0.03125, 1.1875)" style="font-style: normal; font-variant: normal; font-weight: normal; font-stretch: normal; letter-spacing: normal; word-spacing: normal; text-anchor: start; fill: rgb(17, 85, 157); fill-opacity: 1; fill-rule: evenodd; stroke: rgb(17, 85, 157); stroke-width: 0pt; stroke-linecap: butt; stroke-linejoin: miter; stroke-miterlimit: 10.433; stroke-dasharray: none; stroke-dashoffset: 0pt; stroke-opacity: 1;" id="polygon54"/>
      <path d="M -2.15625,497.8125 L -11.03125,538.53125 L 0.71875,538.53125 L 3.59375,525.03125 L 12,525.03125 C 20.031199,525.03125 26.735011,520.0812 28.53125,511.65625 C 30.567487,502.1313 23.748712,497.8125 17.875,497.8125 L -2.15625,497.8125 z M 7.8125,506.09375 L 13.5625,506.09375 C 16.438731,506.09375 18.339995,508.56877 17.5,511.65625 L 17.4375,511.9375 L 17.34375,512.25 L 17.25,512.5 L 17.125,512.78125 L 17,513.0625 L 16.875,513.3125 L 16.75,513.59375 L 16.59375,513.84375 L 16.40625,514.09375 L 16.25,514.3125 L 16.0625,514.5625 L 15.875,514.78125 L 15.65625,515 L 15.4375,515.21875 L 15.21875,515.40625 L 15,515.625 L 14.78125,515.8125 L 14.53125,515.96875 L 14.3125,516.125 L 14.0625,516.28125 L 13.78125,516.4375 L 13.53125,516.5625 L 13.28125,516.6875 L 13,516.8125 L 12.75,516.90625 L 12.46875,517 L 12.1875,517.0625 L 11.90625,517.125 L 11.625,517.1875 L 11.34375,517.21875 L 11.0625,517.21875 L 10.78125,517.25 L 5.28125,517.25 L 7.8125,506.09375 z " transform="scale(0.00138889, 0.00138889)" style="font-style: normal; font-variant: normal; font-weight: normal; font-stretch: normal; letter-spacing: normal; word-spacing: normal; text-anchor: start; fill: rgb(17, 85, 157); fill-opacity: 1; fill-rule: evenodd; stroke: rgb(17, 85, 157); stroke-width: 0pt; stroke-linecap: butt; stroke-linejoin: miter; stroke-miterlimit: 10.433; stroke-dasharray: none; stroke-dashoffset: 0pt; stroke-opacity: 1;" id="path58"/>
      <polygon points="166.41,281.63 166.41,285.48 164.98,285.48 164.98,286 168.44,286 168.44,285.48 166.99,285.48 166.99,281.63 166.41,281.63" transform="matrix(0.0017361, 0, 0, -0.0017361, -0.03125, 1.1875)" style="font-style: normal; font-variant: normal; font-weight: normal; font-stretch: normal; letter-spacing: normal; word-spacing: normal; text-anchor: start; fill: rgb(17, 85, 157); fill-opacity: 1; fill-rule: nonzero; stroke: rgb(17, 85, 157); stroke-width: 0pt; stroke-linecap: butt; stroke-linejoin: miter; stroke-miterlimit: 10.433; stroke-dasharray: none; stroke-dashoffset: 0pt; stroke-opacity: 1;" id="polygon60"/>
      <path d="M 169.01,281.63 L 169.01,286 L 169.88,286 L 170.91,282.91 C 171.01,282.62 171.07,282.41 171.12,282.26 C 171.17,282.42 171.25,282.66 171.35,282.96 L 172.4,286 L 173.18,286 L 173.18,281.63 L 172.62,281.63 L 172.62,285.29 L 171.35,281.63 L 170.83,281.63 L 169.57,285.35 L 169.57,281.63 L 169.01,281.63 z " transform="matrix(0.0017361, 0, 0, -0.0017361, -0.03125, 1.1875)" style="font-style: normal; font-variant: normal; font-weight: normal; font-stretch: normal; letter-spacing: normal; word-spacing: normal; text-anchor: start; fill: rgb(17, 85, 157); fill-opacity: 1; fill-rule: nonzero; stroke: rgb(17, 85, 157); stroke-width: 0pt; stroke-linecap: butt; stroke-linejoin: miter; stroke-miterlimit: 10.433; stroke-dasharray: none; stroke-dashoffset: 0pt; stroke-opacity: 1;" id="path62"/>
    </g>
  </g>
</svg>